# xmcd
#
# Track frame offsets:
#	150
#	17208
#	33557
#	46359
#	62146
#	75677
#	90032
#	101178
#	113499
#	131662
#	148198
#	161891
#	174780
#	185334
#	195363
#	209160
#
# Disc length: 2971 seconds
#
# Revision: 0
# Processed by: cddbd v1.4PL0 Copyright (c) Steve Scherf et al.
# Submitted via: dBpowerAMP V4.0
#
DISCID=da0b9910
DTITLE=Various Artist - Country Guys Country Girls
DYEAR=1900
DGENRE=Country
TTITLE0=Islands In The Stream
TTITLE1=If I Needed You
TTITLE2=Let's Get Over them Together
TTITLE3=To All The Girls I've Loved Before
TTITLE4=Golden Ring
TTITLE5=If I Said You Had A Beautiful Body
TTITLE6=Bed Of Roses
TTITLE7=All I Ever Need Is You
TTITLE8=You and I
TTITLE9=We've Got Tonight
TTITLE10=Paradise Tonight
TTITLE11=Faking Love
TTITLE12=Heaven's Just A Sin Away
TTITLE13=Oh How I Miss You Tonight
TTITLE14=Everytime Two Fools Collide
TTITLE15=On My Knees
EXTD=
EXTT0=
EXTT1=
EXTT2=
EXTT3=
EXTT4=
EXTT5=
EXTT6=
EXTT7=
EXTT8=
EXTT9=
EXTT10=
EXTT11=
EXTT12=
EXTT13=
EXTT14=
EXTT15=
PLAYORDER=
